<svg version="1.2" xmlns="http://www.w3.org/2000/svg" viewBox="0 0 36.210703125 32" width="36.210703125" height="32">
	<title>react</title>
	<style>
		tspan { white-space:pre } 
		.s0 { fill-opacity: .08;fill: #00d8ff } 
		.t1 { font-size: 50px;fill: #93d3f8;font-weight: 400;font-family: "Consolas", "Consolas" } 
	</style>
	<path class="s0" d="m29.7 10.4q-0.2-0.1-0.3-0.1-0.1-0.1-0.3-0.1-0.1-0.1-0.3-0.1-0.1-0.1-0.3-0.1 0.1-0.4 0.2-0.8c0.9-4.2 0.3-7.7-1.6-8.8-1.9-1.1-5 0.1-8.1 2.7q-0.1 0.1-0.2 0.2-0.1 0.1-0.2 0.3-0.1 0.1-0.3 0.2-0.1 0.1-0.2 0.2-0.1-0.1-0.1-0.2-0.1 0-0.2-0.1 0-0.1-0.1-0.1-0.1-0.1-0.2-0.2c-3.2-2.9-6.5-4.1-8.4-2.9-1.9 1-2.5 4.3-1.7 8.3q0.1 0.1 0.1 0.3 0 0.1 0.1 0.3 0 0.1 0 0.3 0.1 0.1 0.1 0.3-0.7 0.2-1.3 0.4c-3.8 1.3-6.3 3.4-6.3 5.6 0 2.2 2.6 4.4 6.6 5.8q0.1 0 0.3 0 0.1 0.1 0.2 0.1 0.1 0.1 0.2 0.1 0.2 0 0.3 0.1-0.1 0.1-0.1 0.3 0 0.2-0.1 0.3 0 0.2 0 0.3-0.1 0.2-0.1 0.4c-0.8 3.9-0.2 7.1 1.7 8.1 1.9 1.1 5.2 0 8.3-2.8q0.1 0 0.2-0.1 0.1-0.1 0.2-0.2 0.1-0.1 0.2-0.2 0.1-0.1 0.2-0.1 0.1 0.1 0.2 0.2 0.1 0.1 0.3 0.2 0.1 0.1 0.2 0.2 0.1 0.1 0.2 0.2c3.1 2.7 6.1 3.7 8 2.6 1.9-1.1 2.5-4.4 1.7-8.5q0-0.2 0-0.3-0.1-0.1-0.1-0.2 0-0.2 0-0.3-0.1-0.1-0.1-0.2 0.3-0.1 0.7-0.2c4.1-1.4 6.8-3.6 6.8-5.8 0-2.2-2.5-4.3-6.4-5.6zm-0.9 9.9q-0.3 0.1-0.6 0.2-0.7-2.2-1.8-4.5 1-2.4 1.7-4.5 0.6 0.1 1.1 0.3c3.3 1.2 5.3 2.8 5.3 4.2 0 1.3-2.2 3.1-5.7 4.3zm-1.5 2.9c0.4 1.9 0.4 3.5 0.2 4.8-0.2 1.1-0.7 1.9-1.2 2.2-1.1 0.7-3.5-0.2-6.2-2.4q-0.1-0.1-0.2-0.2-0.1-0.1-0.2-0.2-0.1-0.1-0.2-0.2-0.1-0.1-0.3-0.2 1.6-1.7 3.1-3.9 2.6-0.2 4.8-0.7 0 0.1 0.1 0.2 0 0.1 0 0.2 0 0.1 0.1 0.2 0 0.1 0 0.2zm-14.9 6.9c-1.1 0.4-2 0.4-2.5 0.1-1.2-0.7-1.6-3.2-1-6.6q0-0.1 0.1-0.3 0-0.1 0-0.3 0.1-0.1 0.1-0.3 0-0.1 0.1-0.3 2.2 0.5 4.8 0.7 1.5 2.2 3.1 3.9-0.1 0-0.2 0.1-0.1 0.1-0.1 0.2-0.1 0.1-0.2 0.1-0.1 0.1-0.2 0.2c-1.4 1.2-2.8 2.1-4 2.5zm-5.2-9.8c-1.7-0.6-3.2-1.4-4.2-2.2-0.9-0.8-1.3-1.5-1.3-2.1 0-1.4 1.9-3 5.2-4.2q0.6-0.2 1.2-0.3 0.7 2.2 1.8 4.5-1.1 2.4-1.8 4.6-0.1 0-0.2-0.1-0.1 0-0.3 0-0.1-0.1-0.2-0.1-0.1 0-0.2-0.1zm1.7-11.8c-0.6-3.5-0.2-6.1 0.9-6.7 1.2-0.7 3.9 0.3 6.7 2.8q0.1 0 0.1 0.1 0.1 0.1 0.2 0.1 0 0.1 0.1 0.1 0.1 0.1 0.1 0.2-1.5 1.7-3 3.8-2.6 0.2-4.8 0.7 0-0.1-0.1-0.3 0-0.1 0-0.3-0.1-0.1-0.1-0.2 0-0.2-0.1-0.3zm15.5 3.8q-0.1-0.2-0.2-0.4-0.2-0.3-0.3-0.5-0.1-0.2-0.3-0.4-0.1-0.3-0.2-0.5 1.7 0.2 3.2 0.6-0.4 1.5-1.1 3.1-0.1-0.2-0.3-0.5-0.1-0.2-0.2-0.5-0.2-0.2-0.3-0.4-0.1-0.3-0.3-0.5zm-6.3-6.1q1.1 1.1 2.1 2.5-0.5 0-1 0-0.6 0-1.1 0-0.5 0-1 0-0.6 0-1.1 0 1-1.4 2.1-2.5zm-6.3 6.1q-0.2 0.3-0.3 0.5-0.1 0.2-0.3 0.5-0.1 0.2-0.2 0.4-0.1 0.2-0.3 0.5-0.6-1.6-1.1-3.1 1.5-0.4 3.3-0.6-0.2 0.2-0.3 0.5-0.2 0.2-0.3 0.4-0.1 0.2-0.3 0.5-0.1 0.2-0.2 0.4zm1.1 9.2q-1.8-0.2-3.3-0.5 0.5-1.6 1.1-3.2 0.2 0.2 0.3 0.5 0.1 0.2 0.2 0.4 0.2 0.3 0.3 0.5 0.1 0.2 0.3 0.5 0.5 0.9 1.1 1.8zm5.3 4.4q-1.1-1.2-2.2-2.6 1 0 2.1 0 1.1 0 2.2 0-1.1 1.4-2.1 2.6zm7.3-8.2q0.7 1.7 1.2 3.2-1.6 0.4-3.4 0.6 0.2-0.3 0.3-0.5 0.2-0.2 0.3-0.4 0.1-0.3 0.3-0.5 0.1-0.2 0.2-0.5 0.2-0.2 0.3-0.4 0.2-0.3 0.3-0.5 0.1-0.2 0.2-0.5 0.2-0.2 0.3-0.5zm-2.4 1.2q-0.2 0.3-0.4 0.7-0.2 0.3-0.4 0.7-0.2 0.3-0.5 0.7-0.2 0.3-0.4 0.7-0.4 0-0.8 0-0.4 0-0.8 0-0.5 0.1-0.9 0.1-0.4 0-0.8 0-1.7 0-3.2-0.1-0.3-0.4-0.5-0.7-0.2-0.4-0.5-0.7-0.2-0.4-0.4-0.7-0.2-0.4-0.4-0.7-0.2-0.4-0.4-0.7-0.2-0.4-0.4-0.7-0.2-0.4-0.4-0.8-0.2-0.3-0.3-0.7 0.1-0.4 0.3-0.7 0.2-0.4 0.4-0.8 0.2-0.3 0.4-0.7 0.2-0.4 0.4-0.7 0.2-0.4 0.4-0.7 0.2-0.4 0.4-0.7 0.3-0.4 0.5-0.7 0.2-0.3 0.4-0.7 1.6-0.1 3.3-0.1 1.7 0 3.3 0.1 0.2 0.4 0.4 0.7 0.3 0.3 0.5 0.7 0.2 0.3 0.4 0.7 0.2 0.3 0.4 0.7 0.2 0.3 0.4 0.7 0.2 0.4 0.4 0.7 0.2 0.4 0.4 0.7 0.2 0.4 0.4 0.8-0.2 0.3-0.4 0.7-0.2 0.4-0.4 0.7-0.2 0.4-0.4 0.8-0.2 0.3-0.4 0.7zm3.2-17.2c1.2 0.7 1.7 3.5 0.9 7.2q-0.1 0.3-0.2 0.7-2.2-0.5-4.8-0.7-1.5-2.2-3-3.8 0.1-0.1 0.2-0.2 0.1-0.1 0.2-0.2 0.1-0.1 0.2-0.2 0.1-0.1 0.2-0.2c2.7-2.3 5.2-3.2 6.3-2.6zm-8.2 11c1.8 0 3.2 1.5 3.2 3.3 0 1.7-1.4 3.2-3.2 3.2-1.8 0-3.2-1.5-3.2-3.2 0-1.8 1.4-3.3 3.2-3.3z"/>
	<text id="E" style="transform: matrix(.772,0,0,.772,7.198,28.345)" >
		<tspan x="0" y="0" class="t1">E</tspan><tspan  y="0" class="t1">
</tspan>
	</text>
</svg>